<svg width="43" height="40" viewBox="0 0 43 40" fill="none" xmlns="http://www.w3.org/2000/svg">
<path d="M1 2.35714C1 1.99721 1.14399 1.65201 1.40029 1.3975C1.65659 1.14298 2.00421 1 2.36668 1H6.46672C6.77157 1.00008 7.06765 1.10138 7.30786 1.28778C7.54807 1.47418 7.71862 1.73498 7.7924 2.02871L8.89941 6.42857H40.6337C40.8413 6.42863 41.0462 6.47565 41.2327 6.56606C41.4193 6.65647 41.5827 6.7879 41.7104 6.95037C41.8382 7.11283 41.927 7.30207 41.9702 7.50372C42.0133 7.70537 42.0096 7.91412 41.9594 8.11414L37.8593 24.3999C37.7856 24.6936 37.615 24.9544 37.3748 25.1408C37.1346 25.3272 36.8385 25.4285 36.5337 25.4286H11.9334C11.6286 25.4285 11.3325 25.3272 11.0923 25.1408C10.8521 24.9544 10.6815 24.6936 10.6078 24.3999L5.40071 3.71429H2.36668C2.00421 3.71429 1.65659 3.5713 1.40029 3.31679C1.14399 3.06227 1 2.71708 1 2.35714ZM9.58275 9.14286L12.9994 22.7143H35.4677L38.8844 9.14286H9.58275ZM14.6668 30.8571C13.9419 30.8571 13.2466 31.1431 12.734 31.6521C12.2214 32.1612 11.9334 32.8516 11.9334 33.5714C11.9334 34.2913 12.2214 34.9817 12.734 35.4907C13.2466 35.9997 13.9419 36.2857 14.6668 36.2857C15.3917 36.2857 16.087 35.9997 16.5996 35.4907C17.1122 34.9817 17.4002 34.2913 17.4002 33.5714C17.4002 32.8516 17.1122 32.1612 16.5996 31.6521C16.087 31.1431 15.3917 30.8571 14.6668 30.8571ZM9.20008 33.5714C9.20008 32.1317 9.77603 30.7509 10.8012 29.7328C11.8264 28.7148 13.2169 28.1429 14.6668 28.1429C16.1167 28.1429 17.5071 28.7148 18.5323 29.7328C19.5576 30.7509 20.1335 32.1317 20.1335 33.5714C20.1335 35.0112 19.5576 36.392 18.5323 37.41C17.5071 38.4281 16.1167 39 14.6668 39C13.2169 39 11.8264 38.4281 10.8012 37.41C9.77603 36.392 9.20008 35.0112 9.20008 33.5714ZM33.8003 30.8571C33.0754 30.8571 32.3801 31.1431 31.8675 31.6521C31.3549 32.1612 31.0669 32.8516 31.0669 33.5714C31.0669 34.2913 31.3549 34.9817 31.8675 35.4907C32.3801 35.9997 33.0754 36.2857 33.8003 36.2857C34.5252 36.2857 35.2205 35.9997 35.7331 35.4907C36.2457 34.9817 36.5337 34.2913 36.5337 33.5714C36.5337 32.8516 36.2457 32.1612 35.7331 31.6521C35.2205 31.1431 34.5252 30.8571 33.8003 30.8571ZM28.3336 33.5714C28.3336 32.1317 28.9095 30.7509 29.9348 29.7328C30.96 28.7148 32.3504 28.1429 33.8003 28.1429C35.2502 28.1429 36.6406 28.7148 37.6659 29.7328C38.6911 30.7509 39.267 32.1317 39.267 33.5714C39.267 35.0112 38.6911 36.392 37.6659 37.41C36.6406 38.4281 35.2502 39 33.8003 39C32.3504 39 30.96 38.4281 29.9348 37.41C28.9095 36.392 28.3336 35.0112 28.3336 33.5714Z" fill="#FFFDF7" stroke="#FFFDF7"/>
</svg>
